<svg enable-background="new 0 0 64 64" viewBox="0 0 64 64" xmlns="http://www.w3.org/2000/svg"><circle cx="32" cy="32" fill="#eee" r="32"/><path d="m52.8 10.5h-34.7c-.4 0-.7.3-.7.7v25.7c-.2 0-.5-.1-.7-.1-1.9 0-3.5 1.6-3.5 3.5-.7.5-1.1 1.2-1.3 2.1h-.8c-.4 0-.7.3-.7.7v2.8c0 .4.3.7.7.7h.7v2.1c0 2.7 2.2 4.9 4.9 4.9h36.1c.4 0 .7-.3.7-.7v-41.7c0-.4-.3-.7-.7-.7zm-38.5 30.8c.2-.1.4-.4.3-.7v-.1c0-.1 0-.1 0-.2 0-1.1.9-2.1 2.1-2.1.7 0 1.4.4 1.8 1 .1.2.3.3.5.3s.4 0 .6-.2c.3-.2.7-.5 1.3-.5.7 0 1.4.4 1.8 1.1.1.3.4.4.7.3.7-.1 1.5.4 1.6 1.1.1.3.2.5.5.5.3.1.5 0 .7-.2.4-.5 1-.8 1.6-.8.9 0 1.7.6 2 1.4h-16.4c.2-.3.5-.7.9-.9zm12.8-4.4c.6 0 1.2-.2 1.7-.7l.4-.4c.4-.4 1-.4 1.4 0l.4.4c.9.9 2.5.9 3.3 0l.4-.4c.4-.4 1-.4 1.4 0l.4.4c.9.9 2.5.9 3.3 0l.4-.4c.4-.4 1-.4 1.4 0l.4.4c.5.5 1 .7 1.7.7h.4c-.9 4-4.5 6.9-8.8 6.9-1 0-1.9-.2-2.8-.4v-.3c0-.4-.3-.7-.7-.7h-.8c-.3-1.6-1.7-2.7-3.4-2.8-.6-.9-1-1.8-1.2-2.8h.7zm-.6-1.4c0-.2 0-.5 0-.7 0-5 4.1-9 9-9s9 4 9 9v.7h-.7c-.3 0-.5-.1-.7-.3l-.4-.4c-.9-.9-2.5-.9-3.3 0l-.4.4c-.4.4-1 .4-1.4 0l-.4-.4c-.9-.9-2.5-.9-3.3 0l-.4.4c-.4.4-1 .4-1.4 0l-.4-.4c-.9-.9-2.5-.9-3.3 0l-.4.4c-.2.2-.4.3-.7.3zm6.2 10.4v-1.1c.9.3 1.8.4 2.8.4 5.7 0 10.4-4.7 10.4-10.4s-4.7-10.4-10.4-10.4-10.4 4.6-10.4 10.4c0 1.8.5 3.6 1.4 5.2-.2.1-.3.1-.5.2-.4-.5-.9-.9-1.5-1.1-.5-1.4-.8-2.8-.8-4.3 0-6.5 5.3-11.8 11.8-11.8s11.8 5.3 11.8 11.8-5.3 11.8-11.8 11.8c-1 0-1.9-.1-2.9-.4.1-.1.1-.2.1-.3zm-20.8-2.1h19.4v1.4h-19.4zm14.5 8.3h-9.7c-1.9 0-3.5-1.6-3.5-3.5v-2.1h16.7v2.1c0 2-1.5 3.5-3.5 3.5zm25.7 0h-22.3c.9-.9 1.5-2.1 1.5-3.5v-1.4c1.3.4 2.7.7 4.2.7 7.3 0 13.2-5.9 13.2-13.2s-5.9-13.2-13.2-13.2-13.2 5.9-13.2 13.2c0 1.1.2 2.2.4 3.3-.5-.3-1.2-.5-1.8-.5s-1.1.1-1.6.4c-.1-.1-.3-.3-.5-.4v-17.3h33.3zm0-33.3h-33.3v-6.9h33.3z" fill="#eee"/><g fill="#e21e26"><path d="m11.9 43.8h19.4v1.4h-19.4z"/><path d="m29.9 46.6v2.1c0 1.9-1.6 3.5-3.5 3.5h-9.7c-1.9 0-3.5-1.6-3.5-3.5v-2.1z"/><path d="m29.8 42.4h-16.4c.2-.5.5-.9.9-1.1.2-.1.4-.4.3-.7v-.1c0-.1 0-.1 0-.2 0-1.1.9-2.1 2.1-2.1.7 0 1.4.4 1.8 1 .1.2.3.3.5.3s.4 0 .6-.2c.3-.2.7-.5 1.3-.5.7 0 1.4.4 1.8 1.1.1.3.4.4.7.3.7-.1 1.5.4 1.6 1.1.1.3.2.5.5.5.3.1.5 0 .7-.2.4-.5 1-.8 1.6-.8.9.2 1.7.8 2 1.6z"/><path d="m44.2 36.9c-.9 4-4.5 6.9-8.8 6.9-1 0-1.9-.2-2.8-.4v-.3c0-.4-.3-.7-.7-.7h-.8c-.3-1.6-1.7-2.7-3.4-2.8-.6-.9-1-1.8-1.2-2.8h.5c.6 0 1.2-.2 1.7-.7l.4-.4c.4-.4 1-.4 1.4 0l.4.4c.9.9 2.5.9 3.3 0l.4-.4c.4-.4 1-.4 1.4 0l.4.4c.9.9 2.5.9 3.3 0l.4-.4c.4-.4 1-.4 1.4 0l.4.4c.5.5 1 .7 1.7.7h.6z"/><path d="m44.5 34.8v.7h-.7c-.3 0-.5-.1-.7-.3l-.4-.4c-.9-.9-2.5-.9-3.3 0l-.4.4c-.4.4-1 .4-1.4 0l-.4-.4c-.9-.9-2.5-.9-3.3 0l-.4.4c-.4.4-1 .4-1.4 0l-.4-.4c-.9-.9-2.5-.9-3.3 0l-.4.4c-.2.2-.4.3-.7.3h-.7c0-.2 0-.5 0-.7 0-5 4.1-9 9-9s8.9 4 8.9 9z"/><path d="m47.3 34.8c0 6.5-5.3 11.8-11.8 11.8-1 0-1.9-.1-2.9-.4.1-.1.1-.2.1-.3v-1.1c.9.3 1.8.4 2.8.4 5.7 0 10.4-4.7 10.4-10.4s-4.7-10.4-10.4-10.4-10.4 4.6-10.4 10.4c0 1.8.5 3.6 1.4 5.2-.2.1-.3.1-.5.2-.4-.5-.9-.9-1.5-1.1-.5-1.4-.8-2.8-.8-4.3 0-6.5 5.3-11.8 11.8-11.8s11.8 5.3 11.8 11.8z"/><path d="m52.1 20.2v31.9h-22.3c.9-.9 1.5-2.1 1.5-3.5v-1.4c1.3.4 2.7.7 4.2.7 7.3 0 13.2-5.9 13.2-13.2s-5.9-13.2-13.2-13.2-13.2 5.9-13.2 13.2c0 1.1.2 2.2.4 3.3-.5-.3-1.2-.5-1.8-.5s-1.1.1-1.6.4c-.1-.1-.3-.3-.5-.4v-17.3z"/><path d="m18.8 11.9v6.9h33.3v-6.9zm3.5 5.5c-1.1 0-2.1-.9-2.1-2.1s.9-2.1 2.1-2.1c1.1 0 2.1.9 2.1 2.1s-1 2.1-2.1 2.1zm5.5 0c-1.1 0-2.1-.9-2.1-2.1s.9-2.1 2.1-2.1c1.1 0 2.1.9 2.1 2.1s-.9 2.1-2.1 2.1zm5.6 0c-1.1 0-2.1-.9-2.1-2.1s.9-2.1 2.1-2.1c1.1 0 2.1.9 2.1 2.1s-1 2.1-2.1 2.1zm9 0h-1.4v-1.4h1.4zm0-2.7h-1.4v-1.4h1.4zm2.8 2.7h-1.4v-1.4h1.4zm0-2.7h-1.4v-1.4h1.4zm2.8 2.7h-1.4v-1.4h1.4zm0-2.7h-1.4v-1.4h1.4zm2.7 2.7h-1.4v-1.4h1.4zm0-2.7h-1.4v-1.4h1.4z"/></g><path d="m46.6 13.3h1.4v1.4h-1.4z" fill="#fff"/><path d="m22.3 13.3c-1.1 0-2.1.9-2.1 2.1s.9 2.1 2.1 2.1c1.1 0 2.1-.9 2.1-2.1s-1-2.1-2.1-2.1zm0 2.7c-.4 0-.7-.3-.7-.7s.3-.7.7-.7.7.4.7.7c0 .4-.3.7-.7.7z" fill="#fff"/><circle cx="22.3" cy="15.3" fill="#e21e26" r=".7"/><path d="m27.8 13.3c-1.1 0-2.1.9-2.1 2.1s.9 2.1 2.1 2.1c1.1 0 2.1-.9 2.1-2.1s-.9-2.1-2.1-2.1zm0 2.7c-.4 0-.7-.3-.7-.7s.3-.7.7-.7.7.3.7.7-.3.7-.7.7z" fill="#fff"/><circle cx="27.8" cy="15.3" fill="#e21e26" r=".7"/><path d="m33.4 13.3c-1.1 0-2.1.9-2.1 2.1s.9 2.1 2.1 2.1c1.1 0 2.1-.9 2.1-2.1s-1-2.1-2.1-2.1zm0 2.7c-.4 0-.7-.3-.7-.7s.3-.7.7-.7.7.3.7.7-.3.7-.7.7z" fill="#fff"/><circle cx="33.4" cy="15.3" fill="#e21e26" r=".7"/><path d="m49.3 16h1.4v1.4h-1.4z" fill="#fff"/><path d="m49.3 13.3h1.4v1.4h-1.4z" fill="#fff"/><path d="m46.6 16h1.4v1.4h-1.4z" fill="#fff"/><path d="m43.8 16h1.4v1.4h-1.4z" fill="#fff"/><path d="m43.8 13.3h1.4v1.4h-1.4z" fill="#fff"/><path d="m41 16h1.4v1.4h-1.4z" fill="#fff"/><path d="m41 13.3h1.4v1.4h-1.4z" fill="#fff"/></svg>