<svg width="57" height="56" viewBox="0 0 57 56" fill="none" xmlns="http://www.w3.org/2000/svg">
<path d="M28.5 56C44.2401 56 57 43.464 57 28C57 12.536 44.2401 0 28.5 0C12.7599 0 0 12.536 0 28C0 43.464 12.7599 56 28.5 56Z" fill="#E30613"/>
<path d="M10.1921 33.8075C10.4199 33.5153 10.7146 33.4409 11.0712 33.4435C12.7058 33.4589 14.3403 33.4486 15.9723 33.4512C16.0565 33.4512 16.1407 33.4486 16.2224 33.4537C16.6088 33.4794 16.849 33.7203 16.8441 34.0715C16.8391 34.4073 16.6088 34.6508 16.2348 34.6585C15.5785 34.6739 14.9223 34.6636 14.266 34.6662C14.1248 34.6662 13.9837 34.6662 13.788 34.6662C13.788 35.0763 13.7781 35.4557 13.7979 35.8299C13.8004 35.8863 13.944 35.9811 14.0208 35.9811C14.9866 35.9914 15.9525 35.9965 16.9183 35.976C17.0224 35.9735 17.1611 35.8171 17.2205 35.6992C17.8074 34.4765 18.7237 33.7049 20.0413 33.5127C21.6733 33.2743 23.1716 34.1305 23.8576 35.6812C23.9517 35.8966 24.0508 35.9991 24.3009 35.9991C28.0578 35.9888 31.8147 35.9914 35.5716 35.9914C35.6558 35.9914 35.7376 35.9837 35.8812 35.976C35.8812 35.8427 35.8812 35.7146 35.8812 35.5864C35.8812 34.2535 35.8787 32.9206 35.8837 31.5877C35.8862 31.1929 36.1338 30.9289 36.4657 30.9315C36.7901 30.934 37.013 31.1827 37.0303 31.562C37.0353 31.6594 37.0328 31.7594 37.0328 31.8594C37.0328 33.1051 37.0303 34.3535 37.0378 35.5992C37.0378 35.7274 37.1071 35.8555 37.1442 35.9811C37.2408 35.8786 37.3696 35.7915 37.429 35.671C38.1126 34.2637 39.2171 33.4768 40.7278 33.4743C42.2558 33.4691 43.3826 34.2484 44.0464 35.6864C44.1578 35.9273 44.2792 36.0145 44.5268 35.9991C44.8933 35.9786 45.2623 35.994 45.6536 35.994C45.6536 35.1301 45.6536 34.2945 45.6536 33.3999C45.4827 33.3999 45.3094 33.4025 45.136 33.3999C43.9498 33.3743 43.2365 32.6258 43.2266 31.3929C43.2241 31.0238 43.2167 30.6521 43.2316 30.283C43.2464 29.8831 43.4545 29.678 43.8458 29.6703C44.403 29.6626 44.9602 29.6678 45.5224 29.6678C45.3812 28.9552 44.6878 28.3477 43.925 28.34C41.6714 28.3195 39.4177 28.3323 37.1616 28.3349C37.1294 28.3349 37.0972 28.3554 37.0229 28.3784C37.0229 28.5912 37.0328 28.8116 37.0204 29.0295C36.9981 29.3653 36.7777 29.5832 36.4731 29.5909C36.1536 29.5986 35.9134 29.373 35.8812 29.0295C35.8713 28.9193 35.8763 28.8065 35.8763 28.6963C35.8763 25.3512 35.8763 22.0061 35.8763 18.6584C35.8763 18.5149 35.8763 18.3688 35.8763 18.2073C28.5036 18.2073 21.173 18.2073 13.7756 18.2073C13.7756 18.3637 13.7756 18.5175 13.7756 18.6713C13.7756 21.9933 13.7756 25.3127 13.7756 28.6348C13.7756 28.7578 13.7781 28.8808 13.7707 29.0039C13.7434 29.3653 13.5255 29.5883 13.206 29.5883C12.889 29.5909 12.6537 29.3627 12.624 29.0141C12.6141 28.9167 12.6216 28.8168 12.6216 28.7168C12.6216 25.2974 12.6216 21.8779 12.6216 18.4585C12.6216 17.4665 13.0673 17 14.0134 17C21.23 17 28.4466 17 35.6608 17C36.5796 17 37.0254 17.4563 37.0303 18.397C37.0328 18.7533 37.0303 19.1096 37.0303 19.5043C37.1789 19.512 37.3052 19.5223 37.4315 19.5223C38.697 19.5248 39.9601 19.5197 41.2256 19.5248C42.7239 19.53 43.7368 20.5655 43.764 22.1138C43.7789 22.952 43.764 22.993 43.3232 23.2801C43.6229 24.5079 43.9201 25.7485 44.2321 26.984C44.2544 27.0737 44.3708 27.1788 44.4624 27.207C46.0103 27.6761 46.8226 28.7783 46.8226 30.4342C46.8226 32.4207 46.8226 34.4099 46.8226 36.3964C46.8226 37.0142 46.6343 37.2038 46.0276 37.2064C45.4927 37.2064 44.9602 37.2064 44.4005 37.2064C44.3386 38.4111 43.9176 39.4108 43.0211 40.1593C42.3375 40.7309 41.5525 41.0052 40.6733 40.9949C38.7589 40.9744 37.4835 39.6518 37.06 37.2243C32.7855 37.2243 28.511 37.2243 24.2018 37.2243C24.1424 38.4675 23.6768 39.5005 22.7135 40.2516C21.9804 40.8232 21.1384 41.0718 20.227 40.9821C18.4687 40.8104 16.9753 39.3724 16.8961 37.2038C16.7747 37.2038 16.6509 37.2038 16.5246 37.2038C15.6652 37.2038 14.8059 37.2064 13.949 37.2038C13.107 37.2013 12.6216 36.6937 12.6191 35.8197C12.6166 35.4505 12.6191 35.084 12.6191 34.6687C12.042 34.6687 11.4972 34.6585 10.9548 34.6713C10.6131 34.679 10.3481 34.5739 10.1797 34.2561C10.1921 34.1048 10.1921 33.9562 10.1921 33.8075ZM43.0384 27.1173C43.0285 27.0276 43.0285 26.9558 43.0112 26.8866C42.7462 25.7895 42.4713 24.695 42.2211 23.5953C42.1642 23.339 42.0651 23.2647 41.8175 23.2672C40.3415 23.2801 38.863 23.2724 37.3869 23.2749C37.2829 23.2749 37.1814 23.2903 37.0724 23.298C37.0724 24.5848 37.0724 25.8459 37.0724 27.1173C39.0735 27.1173 41.0473 27.1173 43.0384 27.1173ZM20.5712 34.6739C19.2017 34.6662 18.0848 35.8043 18.0724 37.2141C18.0625 38.606 19.1893 39.7876 20.544 39.8004C21.8987 39.8133 23.0181 38.6598 23.028 37.2423C23.0379 35.8145 21.9532 34.679 20.5712 34.6739ZM40.7501 34.6739C39.3756 34.6764 38.2735 35.8171 38.276 37.232C38.2785 38.6393 39.4053 39.803 40.7575 39.8004C42.1147 39.7979 43.2365 38.629 43.2341 37.2243C43.2316 35.812 42.1221 34.6713 40.7501 34.6739ZM42.5976 22.0292C42.5976 21.3063 42.1246 20.7552 41.4237 20.7398C40.0195 20.7116 38.6178 20.7296 37.2136 20.7321C37.169 20.7321 37.1244 20.7527 37.065 20.768C37.065 21.1884 37.065 21.5985 37.065 22.0292C38.915 22.0292 40.7402 22.0292 42.5976 22.0292ZM45.6586 32.1593C45.6586 31.7133 45.6586 31.2929 45.6586 30.8725C45.2301 30.8725 44.8339 30.8725 44.4376 30.8725C44.2792 31.9081 44.5045 32.3208 45.6586 32.1593Z" fill="white"/>
<path d="M24.2039 28.1811C24.8453 27.5147 25.4298 26.9021 26.0167 26.292C27.0767 25.1924 28.1391 24.0953 29.2016 22.9956C29.2684 22.9264 29.3353 22.8495 29.4145 22.7982C29.682 22.6291 29.9445 22.6521 30.1575 22.8905C30.3606 23.1187 30.3581 23.3827 30.1996 23.639C30.1427 23.7313 30.0584 23.8031 29.9817 23.8825C28.2555 25.6691 26.5294 27.4583 24.8008 29.2449C24.3451 29.714 24.1098 29.7166 23.6616 29.2526C22.7254 28.2862 21.7843 27.325 20.8655 26.3407C20.7194 26.1843 20.5956 25.9024 20.6204 25.7024C20.6848 25.1949 21.2494 25.0719 21.6333 25.4641C22.3985 26.2433 23.1539 27.0302 23.9092 27.8172C24.0033 27.9146 24.0801 28.0274 24.2039 28.1811Z" fill="white"/>
<path d="M29.7303 34.664C28.3955 34.664 27.0631 34.664 25.7282 34.664C25.597 34.664 25.4657 34.6614 25.3369 34.6358C25.0546 34.5794 24.8986 34.3794 24.8788 34.0975C24.859 33.8104 25.0001 33.5976 25.2701 33.5079C25.3914 33.4669 25.5252 33.4567 25.6539 33.4567C28.3806 33.4541 31.1073 33.4515 33.8364 33.4592C34.0073 33.4592 34.2277 33.4823 34.3342 33.59C34.4679 33.7258 34.5918 33.9744 34.567 34.1513C34.5398 34.3256 34.3441 34.5025 34.1831 34.6178C34.0816 34.6896 33.9082 34.6665 33.7646 34.6665C32.4198 34.6665 31.0751 34.664 29.7303 34.664Z" fill="white"/>
<path d="M15.6707 32.1184C14.539 32.1184 13.4047 32.1184 12.2729 32.1184C12.1664 32.1184 12.0575 32.1209 11.951 32.1107C11.634 32.0799 11.4185 31.8441 11.416 31.5314C11.4136 31.2263 11.629 30.9623 11.9386 30.9316C12.164 30.9111 12.3918 30.9239 12.6172 30.9239C14.8238 30.9239 17.0279 30.9239 19.2345 30.9213C19.5242 30.9213 19.7843 31.011 19.8536 31.3084C19.8957 31.4955 19.8586 31.7672 19.7471 31.9082C19.6431 32.0415 19.3954 32.1056 19.2097 32.1081C18.0309 32.1261 16.8496 32.1184 15.6707 32.1184Z" fill="white"/>
<path d="M21.7501 37.2318C21.7477 37.8983 21.2152 38.4571 20.5738 38.4673C19.9249 38.475 19.3628 37.9008 19.3652 37.2267C19.3652 36.5474 19.9249 35.9835 20.5812 35.9963C21.2276 36.0066 21.7526 36.5628 21.7501 37.2318Z" fill="white"/>
<path d="M40.7588 35.9942C41.4027 35.9993 41.9426 36.553 41.95 37.2169C41.9574 37.8859 41.3928 38.4703 40.7439 38.4652C40.0951 38.4601 39.5354 37.8654 39.5552 37.2015C39.575 36.5325 40.1174 35.9891 40.7588 35.9942Z" fill="white"/>
</svg>
